<?xml version="1.0" encoding="utf-8"?>
<!-- Generator: Adobe Illustrator 25.0.0, SVG Export Plug-In . SVG Version: 6.00 Build 0)  -->
<svg version="1.1" xmlns="http://www.w3.org/2000/svg" xmlns:xlink="http://www.w3.org/1999/xlink" x="0px" y="0px"
	 viewBox="0 0 1080 1080" style="enable-background:new 0 0 1080 1080;" xml:space="preserve">
<style type="text/css">
	.st0{fill:#FFFFFF;}
	.st1{fill:#0093E7;}
	.st2{fill:#9CCC65;}
</style>
<g id="Ebene_1">
</g>
<g id="Ebene_2">
	<g>
		<path class="st0" d="M1080,772c0,169.4-138.6,308-308,308H308C138.6,1080,0,941.4,0,772V308C0,138.6,138.6,0,308,0h464
			c169.4,0,308,138.6,308,308V772z"/>
	</g>
	<g>
		<path class="st1" d="M319.83,207.94v375.38c0,79.74,64.64,144.38,144.38,144.38V352.31C464.2,272.58,399.57,207.94,319.83,207.94z
			"/>
		<path class="st2" d="M615.8,727.69H464.2c0,79.74,64.64,144.37,144.38,144.37h151.59C760.17,792.33,695.53,727.69,615.8,727.69z"
			/>
	</g>
</g>
</svg>
