<svg id="logo" xmlns="http://www.w3.org/2000/svg" viewBox="0 0 436.81 377.26"><defs><style>.cls-1{fill:#231f20;}.cls-2{fill:#f58025;}</style></defs><title>ams-ix-logo</title><path class="cls-1" d="M72.78,355.25V339.72c12.8-3.93,21.84-5.8,29.69-5.8,16.72,0,24.74,6.65,24.74,20.14v45.22c0,4.26.52,4.95,4.78,6.31l9.56,2.73v3.58L129.26,416a36.44,36.44,0,0,1-7.17,1.2h-.68c-5.11,0-8-2.56-9-8.19l-2.05,1-5.8,2.73c-4.1,1.88-6.66,2.9-7.68,3.24a24.09,24.09,0,0,1-8.36,1.2c-13.82,0-23.37-8.53-23.37-20.65,0-10.24,6.31-16.89,18.09-19.45a233.61,233.61,0,0,1,28.66-3.92V354.74c0-10.58-4.09-14-17.06-14a21.75,21.75,0,0,0-4.61.34L83,355.25Zm39.07,22.7a126.47,126.47,0,0,0-17.91,3.24c-8.19,2-11.77,6-11.77,13,0,8.36,6.31,13.65,16.38,13.65a26.86,26.86,0,0,0,6.48-.69,35.28,35.28,0,0,0,5.46-1.19,7.61,7.61,0,0,0,1.36-.34Z" transform="translate(-65.11 -41.63)"/><path class="cls-1" d="M149.57,416.33v-4.27l14.33-6V347.23l-14.33-4.09V339l29.69-6.65v9.73l2.21-1,8.87-3.41c10.41-3.93,12.11-4.44,17.23-4.44,7.85,0,12.63,2.73,17.24,9.9,1-.34,1.88-.69,2.39-.86,1.54-.51,5.29-1.87,11.61-4.43,8.87-3.41,14.16-4.78,18.77-4.78a23.06,23.06,0,0,1,16.72,7c5.11,5.12,6.82,10.24,6.82,20.3V406.1l14.33,6v4.27H252.29v-4.27l13.48-6V363.61c0-13.82-6.32-19.45-22.19-19.45a54.09,54.09,0,0,0-16.72,2.39c1.88,4.26,2.39,7.68,2.39,15.87V406.1l13.65,6v4.27H201.27v-4.27l12.8-6V363.61c0-14.16-5.8-19.45-21.16-19.45a50.69,50.69,0,0,0-13.65,1.7V406.1l13.47,6v4.27Z" transform="translate(-65.11 -41.63)"/><path class="cls-1" d="M306.54,413.26V394.32h7.17l7.85,15.36a41.91,41.91,0,0,0,7.51.68c10.58,0,16.55-4.44,16.55-12.11,0-5.29-1.87-7.85-8.53-11.77l-15.53-8.7c-9.56-5.63-14.16-12.63-14.16-21.67,0-14,9.89-23,25.76-23,6.15,0,11.61,1,22,3.75l1.37.51V354.4h-7.17l-6.82-13.82a23,23,0,0,0-7.16-.85c-9.73.17-15.36,4.09-15.36,10.92,0,4.78,2.9,8.19,10.57,12.45l13.31,7.34c10.92,6,15.18,12.45,15.18,22.69,0,14.33-11.26,24.91-26.79,24.91C326.51,418,316.79,416.16,306.54,413.26Z" transform="translate(-65.11 -41.63)"/><path class="cls-2" d="M391.87,343.65l-13.14,14.16-2.9-2.39c6.48-13.48,16.21-22.35,24.91-22.35,4.78,0,6.83,2.22,6.83,6.82a24.48,24.48,0,0,1-.34,3.24L398.69,404v.69a3.86,3.86,0,0,0,1,2.73l.85.85L413.87,394l2.9,2.56c-6.31,13.14-16.38,22.35-24.74,22.35-4.61,0-7-2.22-7-6.65a33.74,33.74,0,0,1,.34-3.92l8.53-60.41v-.85a2.5,2.5,0,0,0-1-2.22Zm14.33-40.27c4.44,0,7,2.56,7,7.34,0,7.17-3.58,11.43-9.55,11.43-4.44,0-7-2.56-7-7.17C396.64,308,400.4,303.38,406.19,303.38Z" transform="translate(-65.11 -41.63)"/><path class="cls-2" d="M473.08,372.31,487.93,404c.68,1.54.85,1.54,2,2l8.88-12.29,3.08,2C497.82,408.66,490.32,418,484,418c-3.58,0-4.44-.85-7.68-7.68l-14.16-30.2L460.62,382q-2.81,3.07-7.68,8.19a89,89,0,0,0-8.19,9.56c2.55,4.1,3.75,7.17,3.75,9.9,0,5.12-3.75,8.36-9.72,8.36-5.8,0-8.87-2.56-8.87-7.33,0-3.24,2-7.68,5.63-11.94a248,248,0,0,1,24.06-24.23l-12.8-27c-.68-1.71-.85-1.88-2.22-2.22l-9,12.11-3.24-2,.68-1.53c6-14.68,10.92-20.82,17.06-20.82,3.93,0,5.12,1.2,8.54,8.36l11.94,25.42A196.64,196.64,0,0,0,484.68,351l-.85-1.54c-1.7-3.59-2.22-5.46-2.22-8,0-5.46,3.41-8.36,9.72-8.36,5.29,0,8.19,2.56,8.19,6.82,0,3.92-2,8-6.83,13.14S480.93,365,474.45,370.95Z" transform="translate(-65.11 -41.63)"/><path class="cls-2" d="M262.25,235.6q-7.92,8.66-21.64,23.09c-8.38,9-12.48,13.49-16.12,17.94a124.31,124.31,0,0,0,59,14.81c3.87,0,7.7-.2,11.48-.55l-28.41-60.58Z" transform="translate(-65.11 -41.63)"/><path class="cls-2" d="M259.37,214.43l-36.08-76c-1.92-4.81-2.4-5.29-6.24-6.25l-25.5,34.15-9.14-5.77,1.92-4.33c16.83-41.36,30.78-58.68,48.09-58.68,11.07,0,14.44,3.37,24.05,23.57l33.66,71.67c12-11.54,30.79-33.19,39.92-44.73l-2.4-4.33c-4.81-10.1-6.25-15.39-6.25-22.61,0-15.39,9.62-23.57,27.42-23.57,14.91,0,23.08,7.22,23.08,19.24,0,11.06-5.77,22.61-19.24,37s-33.19,33.67-51.46,50.5l-3.85,3.85,34.42,73.57A125,125,0,1,0,207.09,265.3C224.37,246.73,245.26,226.37,259.37,214.43Z" transform="translate(-65.11 -41.63)"/></svg>