<?xml version="1.0" encoding="utf-8"?>
<!-- Generator: Adobe Illustrator 25.0.0, SVG Export Plug-In . SVG Version: 6.00 Build 0)  -->
<svg version="1.1" id="Ebene_1" xmlns="http://www.w3.org/2000/svg" xmlns:xlink="http://www.w3.org/1999/xlink" x="0px" y="0px"
	 viewBox="0 0 1280 1024" style="enable-background:new 0 0 1280 1024;" xml:space="preserve">
<style type="text/css">
	.st0{fill:none;stroke:#000000;stroke-width:10;stroke-miterlimit:10;}
</style>
<path d="M738.75,564.84V459.16c11.63-5.57,19.75-17.36,19.75-31.1c0-19.06-15.5-34.56-34.56-34.56c-13.74,0-25.53,8.12-31.1,19.75
	H587.16c-5.57-11.63-17.36-19.75-31.1-19.75c-19.06,0-34.56,15.5-34.56,34.56c0,13.74,8.12,25.53,19.75,31.1v105.68
	c-11.63,5.57-19.75,17.36-19.75,31.1c0,19.06,15.5,34.56,34.56,34.56c13.74,0,25.53-8.12,31.1-19.75h105.68
	c5.57,11.63,17.36,19.75,31.1,19.75c19.06,0,34.56-15.5,34.56-34.56C758.5,582.2,750.38,570.41,738.75,564.84z M723.94,413.25
	c8.17,0,14.81,6.65,14.81,14.81s-6.65,14.81-14.81,14.81s-14.81-6.65-14.81-14.81S715.77,413.25,723.94,413.25z M556.06,413.25
	c8.17,0,14.81,6.65,14.81,14.81s-6.65,14.81-14.81,14.81s-14.81-6.65-14.81-14.81S547.9,413.25,556.06,413.25z M556.06,610.75
	c-8.17,0-14.81-6.65-14.81-14.81s6.65-14.81,14.81-14.81s14.81,6.65,14.81,14.81S564.23,610.75,556.06,610.75z M689.88,591h-99.76
	c-2.18-15.08-14.05-26.94-29.12-29.12v-99.76c15.08-2.18,26.94-14.05,29.12-29.12h99.75c2.18,15.08,14.05,26.94,29.12,29.12v99.75
	C703.91,564.05,692.05,575.92,689.88,591L689.88,591z M723.94,610.75c-8.17,0-14.81-6.65-14.81-14.81s6.65-14.81,14.81-14.81
	s14.81,6.65,14.81,14.81S732.1,610.75,723.94,610.75z"/>
<path d="M86.62,0H39.38C17.64,0.03,0.03,17.64,0,39.38v110.25c0.03,21.74,17.64,39.35,39.38,39.38h47.25
	c21.74-0.03,39.35-17.64,39.38-39.38V39.38C125.97,17.64,108.36,0.03,86.62,0z M39.38,15.75h47.25c13.05,0,23.62,10.58,23.62,23.62
	V126h-94.5V39.38C15.75,26.33,26.33,15.75,39.38,15.75z M86.62,173.25H39.38c-13.05,0-23.62-10.58-23.62-23.62v-7.88h94.5v7.88
	C110.25,162.67,99.67,173.25,86.62,173.25z"/>
<path d="M726.11,104.92V43.06C726.09,19.29,706.83,0.03,683.06,0h-86.11c-23.77,0.03-43.03,19.29-43.06,43.06v61.86
	c-13.43,4.73-20.48,19.45-15.75,32.87c3.64,10.33,13.41,17.23,24.36,17.21h155c14.23,0.03,25.79-11.49,25.82-25.72
	C743.35,118.32,736.44,108.56,726.11,104.92z M596.95,17.22h86.11c14.27,0,25.83,11.57,25.83,25.83v60.28h-35.74
	c-5.07,0-9.88,2.23-13.16,6.1l-2.13,2.51h-35.73l-2.12-2.51c-3.27-3.87-8.09-6.1-13.16-6.1h-35.74V43.06
	C571.11,28.79,582.68,17.22,596.95,17.22z M717.5,137.78h-155c-4.76,0-8.61-3.86-8.61-8.61c0-4.76,3.86-8.61,8.61-8.61h44.36
	l2.12,2.51c3.27,3.87,8.08,6.1,13.15,6.1h35.73c5.07,0,9.88-2.23,13.16-6.1l2.13-2.51h44.36c4.76,0,8.61,3.86,8.61,8.61
	C726.11,133.92,722.26,137.78,717.5,137.78z"/>
<path d="M1280,22.12C1280,9.91,1270.09,0,1257.88,0h-132.75C1112.91,0,1103,9.91,1103,22.12v22.12c0.02,5.46,2.07,10.72,5.75,14.75
	c-3.68,4.03-5.73,9.29-5.75,14.75v22.12c0.02,5.46,2.07,10.72,5.75,14.75c-3.68,4.03-5.73,9.29-5.75,14.75v44.25h177v-44.25
	c-0.02-5.46-2.07-10.72-5.75-14.75c3.68-4.03,5.73-9.29,5.75-14.75V73.75c-0.02-5.46-2.07-10.72-5.75-14.75
	c3.68-4.03,5.73-9.29,5.75-14.75V22.12z M1117.75,22.12c0-4.07,3.3-7.38,7.38-7.38h14.75V29.5h14.75V14.75h14.75V29.5h14.75V14.75
	h73.75c4.07,0,7.38,3.3,7.38,7.38v22.12c0,4.07-3.3,7.38-7.38,7.38h-132.75c-4.07,0-7.38-3.3-7.38-7.38V22.12z M1265.25,73.75v22.12
	c0,4.07-3.3,7.38-7.38,7.38h-132.75c-4.07,0-7.38-3.3-7.38-7.38V73.75c0-4.07,3.3-7.38,7.38-7.38h14.75v14.75h14.75V66.38h14.75
	v14.75h14.75V66.38h73.75C1261.95,66.38,1265.25,69.68,1265.25,73.75z M1265.25,154.88h-147.5v-29.5c0-4.07,3.3-7.38,7.38-7.38
	h14.75v14.75h14.75V118h14.75v14.75h14.75V118h73.75c4.07,0,7.38,3.3,7.38,7.38V154.88z"/>
<g id="_01_align_center">
	<path d="M1280,551.94v-122.9c0-13.57-11-24.58-24.58-24.58h-147.48c-13.57,0-24.58,11-24.58,24.58v122.9h90.12v16.39h-40.97v16.39
		h98.32v-16.39h-40.97v-16.39H1280z M1107.94,420.84h147.48c4.53,0,8.19,3.67,8.19,8.19v73.74h-163.86v-73.74
		C1099.75,424.51,1103.42,420.84,1107.94,420.84z M1099.75,519.16h163.86v16.39h-163.86V519.16z"/>
</g>
<g id="_01_align_center_1_">
	<path d="M170.8,917.25c0-11.79-9.56-21.35-21.35-21.35h-14.23v-42.7H35.58v42.7H21.35C9.56,895.9,0,905.46,0,917.25v85.4h35.58
		V1024h99.63v-21.35h35.58V917.25z M49.82,867.44h71.16v28.47H49.82V867.44z M120.98,1009.77H49.82v-42.7h71.16V1009.77z
		 M156.56,988.42h-21.35v-35.58H35.58v35.58H14.23v-71.16c0-3.93,3.19-7.12,7.12-7.12h128.1c3.93,0,7.12,3.19,7.12,7.12V988.42z"/>
	<rect x="106.75" y="924.37" width="28.47" height="14.23"/>
</g>
<g id="_01_align_center_2_">
	<path d="M1280,999.17V891.55c0-13.72-11.12-24.83-24.83-24.83h-149c-13.72,0-24.83,11.12-24.83,24.83v107.61h91.06v8.28h-33.11
		V1024h82.78v-16.56h-33.11v-8.28H1280z M1097.89,891.55c0-4.57,3.71-8.28,8.28-8.28h149c4.57,0,8.28,3.71,8.28,8.28v91.06h-165.56
		V891.55z"/>
</g>
<path d="M104.96,444.03c-25.94-23.17-65.75-20.93-88.93,5.01c-8.43,9.43-13.82,21.19-15.47,33.73
	c-2.73,20.21,4.57,40.47,19.54,54.31c9.23,8.09,14.64,19.68,14.92,31.95v1.13c0.02,14.25,11.57,25.81,25.82,25.82h4.34
	c14.25-0.02,25.81-11.57,25.82-25.82v-3.84c0.21-10.85,5.15-21.08,13.52-27.99c26.15-22.9,28.78-62.66,5.88-88.81
	c-1.7-1.94-3.52-3.78-5.45-5.5V444.03z M65.19,581.99h-4.34c-6.53-0.01-11.82-5.3-11.83-11.83c0,0-0.05-1.82-0.06-2.17h28.05v2.17
	C77.01,576.69,71.72,581.98,65.19,581.99z M95.28,527.82c-7.97,6.91-13.72,16.02-16.54,26.18h-8.72v-50.27
	c8.36-2.95,13.96-10.84,14-19.71c0-3.86-3.13-7-7-7c-3.86,0-7,3.13-7,7c0,3.86-3.13,7-7,7s-7-3.13-7-7c0-3.86-3.13-7-7-7
	s-7,3.13-7,7c0.04,8.86,5.64,16.75,14,19.71v50.27h-9.25c-3.16-10.43-9.08-19.82-17.13-27.16c-19.79-18.44-20.89-49.44-2.44-69.23
	c7.91-8.49,18.57-13.89,30.09-15.25c1.92-0.21,3.86-0.32,5.79-0.32c12.02-0.04,23.62,4.4,32.55,12.44
	c20.17,17.99,21.94,48.92,3.95,69.09c-1.34,1.5-2.77,2.92-4.29,4.25H95.28z"/>
<path d="M716.12,995.95V1024h-8.01v-28.05c0-11.05-8.99-20.03-20.03-20.03h-88.15c-11.04,0-20.03,8.98-20.03,20.03V1024h-8.01
	v-28.05c0-15.47,12.58-28.05,28.05-28.05h88.15C703.54,967.9,716.12,980.49,716.12,995.95z M724.14,879.75v48.08h-16.03v24.04
	H579.89v-24.04h-16.03v-48.08h16.03v-12.02c0-11.05,8.99-20.03,20.03-20.03h40.07v-16.03h8.01v16.03h40.07
	c11.04,0,20.03,8.98,20.03,20.03v12.02H724.14z M579.89,919.82v-32.05h-8.01v32.05H579.89z M700.1,867.73
	c0-6.63-5.39-12.02-12.02-12.02h-88.15c-6.63,0-12.02,5.39-12.02,12.02v76.13H700.1V867.73z M716.12,887.77h-8.01v32.05h8.01V887.77
	z M635.99,903.8c0,8.84-7.19,16.03-16.03,16.03s-16.03-7.19-16.03-16.03c0-8.84,7.19-16.03,16.03-16.03
	C628.8,887.77,635.99,894.96,635.99,903.8z M627.97,903.8c0-4.42-3.6-8.01-8.01-8.01c-4.42,0-8.01,3.59-8.01,8.01
	c0,4.42,3.6,8.01,8.01,8.01C624.37,911.81,627.97,908.22,627.97,903.8z M684.07,903.8c0,8.84-7.19,16.03-16.03,16.03
	c-8.84,0-16.03-7.19-16.03-16.03c0-8.84,7.19-16.03,16.03-16.03C676.88,887.77,684.07,894.96,684.07,903.8z M676.05,903.8
	c0-4.42-3.6-8.01-8.01-8.01c-4.42,0-8.01,3.59-8.01,8.01c0,4.42,3.6,8.01,8.01,8.01C672.46,911.81,676.05,908.22,676.05,903.8z"/>
<g>
	<path d="M584.12,509.49c-0.24-0.39-0.56-0.69-0.98-0.9s-0.9-0.32-1.46-0.32c-1.04,0-1.85,0.34-2.45,1.01
		c-0.59,0.67-0.89,1.57-0.89,2.71c0,1.27,0.32,2.24,0.96,2.91c0.64,0.67,1.56,1,2.78,1c1.44,0,2.47-0.65,3.09-1.95h-4.14v-2.96h7.69
		v3.99c-0.32,0.78-0.79,1.52-1.42,2.21c-0.62,0.69-1.41,1.25-2.36,1.69c-0.95,0.44-2.04,0.66-3.25,0.66c-1.48,0-2.8-0.32-3.94-0.96
		c-1.14-0.64-2.02-1.53-2.65-2.67c-0.62-1.14-0.93-2.45-0.93-3.92c0-1.46,0.31-2.75,0.93-3.9c0.62-1.14,1.5-2.03,2.64-2.67
		c1.13-0.64,2.44-0.96,3.93-0.96c1.86,0,3.4,0.45,4.62,1.34c1.22,0.9,1.97,2.12,2.27,3.68H584.12z"/>
	<path d="M598.06,519.42l-2.94-5.46h-0.44v5.46h-4.12v-14.8h6.49c1.19,0,2.2,0.21,3.02,0.62c0.83,0.41,1.45,0.98,1.87,1.7
		s0.63,1.53,0.63,2.43c0,1.01-0.28,1.89-0.83,2.66c-0.55,0.76-1.36,1.31-2.42,1.63l3.34,5.78H598.06z M594.68,511.15h2.04
		c0.56,0,0.98-0.13,1.26-0.4s0.42-0.65,0.42-1.16c0-0.48-0.14-0.85-0.43-1.12c-0.29-0.27-0.7-0.41-1.25-0.41h-2.04V511.15z"/>
	<path d="M608.56,504.62v14.8h-4.12v-14.8H608.56z"/>
	<path d="M620.86,505.55c1.17,0.62,2.07,1.49,2.7,2.61s0.95,2.4,0.95,3.84c0,1.43-0.32,2.7-0.96,3.82s-1.54,2-2.71,2.64
		c-1.17,0.64-2.52,0.96-4.06,0.96h-5.86v-14.8h5.86C618.33,504.62,619.69,504.93,620.86,505.55z M619.29,514.8
		c0.69-0.66,1.03-1.59,1.03-2.79c0-1.22-0.34-2.16-1.03-2.82c-0.69-0.67-1.63-1-2.83-1h-1.43v7.6h1.43
		C617.66,515.79,618.61,515.46,619.29,514.8z"/>
	<path d="M634.48,507.92v2.42h4.72v3.13h-4.72v2.67h5.35v3.3h-9.47v-14.8h9.47v3.3H634.48z"/>
	<path d="M655.58,519.42h-4.12l-5.48-8.27v8.27h-4.12v-14.8h4.12l5.48,8.38v-8.38h4.12V519.42z"/>
	<path d="M667.38,509.49c-0.24-0.39-0.56-0.69-0.98-0.9s-0.9-0.32-1.46-0.32c-1.04,0-1.85,0.34-2.45,1.01
		c-0.6,0.67-0.89,1.57-0.89,2.71c0,1.27,0.32,2.24,0.96,2.91s1.56,1,2.78,1c1.44,0,2.47-0.65,3.09-1.95h-4.14v-2.96h7.69v3.99
		c-0.32,0.78-0.79,1.52-1.42,2.21c-0.62,0.69-1.41,1.25-2.36,1.69c-0.95,0.44-2.04,0.66-3.25,0.66c-1.48,0-2.8-0.32-3.94-0.96
		c-1.14-0.64-2.02-1.53-2.65-2.67c-0.62-1.14-0.93-2.45-0.93-3.92c0-1.46,0.31-2.75,0.93-3.9c0.62-1.14,1.5-2.03,2.64-2.67
		c1.13-0.64,2.44-0.96,3.93-0.96c1.86,0,3.4,0.45,4.62,1.34c1.22,0.9,1.97,2.12,2.27,3.68H667.38z"/>
	<path d="M677.95,504.62v14.8h-4.12v-14.8H677.95z"/>
	<path d="M694.01,519.42h-4.12l-5.48-8.27v8.27h-4.12v-14.8h4.12l5.48,8.38v-8.38h4.12V519.42z"/>
	<path d="M700.48,507.92v2.42h4.73v3.13h-4.73v2.67h5.36v3.3h-9.47v-14.8h9.47v3.3H700.48z"/>
</g>
<line class="st0" x1="739" y1="519" x2="1088" y2="520"/>
<line class="st0" x1="739" y1="417" x2="1111" y2="165"/>
<line class="st0" x1="640" y1="421" x2="640" y2="155"/>
<line class="st0" x1="537" y1="413" x2="112" y2="173"/>
<line class="st0" x1="541" y1="512" x2="121" y2="511"/>
<line class="st0" x1="642" y1="611" x2="644" y2="848"/>
<line class="st0" x1="531" y1="619" x2="135" y2="896"/>
<line class="st0" x1="751" y1="617" x2="1088" y2="875"/>
<g>
	<path d="M607.23,68.23h4.7V71h-8.29V56.26h3.59V68.23z"/>
	<path d="M613.62,61.95c0.46-0.91,1.07-1.61,1.86-2.1s1.66-0.74,2.62-0.74c0.83,0,1.55,0.17,2.17,0.5c0.62,0.34,1.1,0.78,1.44,1.32
		v-1.66h3.59V71h-3.59v-1.66c-0.35,0.55-0.84,0.99-1.46,1.32s-1.35,0.5-2.17,0.5c-0.95,0-1.82-0.25-2.6-0.75
		c-0.78-0.5-1.4-1.2-1.86-2.12c-0.46-0.92-0.68-1.98-0.68-3.18S613.17,62.86,613.62,61.95z M620.97,63.02
		c-0.5-0.52-1.1-0.78-1.82-0.78s-1.32,0.26-1.82,0.77c-0.5,0.51-0.75,1.21-0.75,2.11s0.25,1.61,0.75,2.13s1.1,0.79,1.82,0.79
		s1.32-0.26,1.82-0.78s0.75-1.23,0.75-2.12S621.47,63.54,620.97,63.02z"/>
	<path d="M632.95,59.62c0.62-0.34,1.34-0.5,2.16-0.5c0.97,0,1.84,0.25,2.62,0.74s1.4,1.19,1.86,2.1s0.68,1.97,0.68,3.17
		s-0.23,2.26-0.68,3.18c-0.46,0.92-1.07,1.62-1.86,2.12c-0.78,0.5-1.66,0.75-2.62,0.75c-0.81,0-1.53-0.17-2.15-0.5
		s-1.11-0.77-1.46-1.3v7.22h-3.59v-17.3h3.59v1.66C631.85,60.4,632.33,59.95,632.95,59.62z M635.88,63.01
		c-0.5-0.51-1.11-0.77-1.84-0.77c-0.71,0-1.32,0.26-1.82,0.78c-0.5,0.52-0.75,1.23-0.75,2.12s0.25,1.6,0.75,2.12s1.1,0.78,1.82,0.78
		c0.71,0,1.32-0.26,1.83-0.79s0.76-1.24,0.76-2.13S636.38,63.52,635.88,63.01z"/>
	<path d="M648.7,67.96V71h-1.83c-1.3,0-2.32-0.32-3.04-0.96c-0.73-0.64-1.09-1.68-1.09-3.12v-4.66h-1.43v-2.98h1.43v-2.86h3.59v2.86
		h2.35v2.98h-2.35v4.7c0,0.35,0.08,0.6,0.25,0.76c0.17,0.15,0.45,0.23,0.84,0.23H648.7z"/>
	<path d="M652.93,70.43c-0.92-0.49-1.64-1.19-2.16-2.1c-0.53-0.91-0.79-1.97-0.79-3.19c0-1.2,0.27-2.26,0.8-3.18
		s1.26-1.62,2.18-2.11s1.96-0.74,3.11-0.74c1.15,0,2.18,0.25,3.11,0.74s1.65,1.19,2.18,2.11s0.8,1.98,0.8,3.18s-0.27,2.26-0.81,3.18
		c-0.54,0.92-1.27,1.62-2.21,2.11c-0.93,0.49-1.97,0.73-3.12,0.73C654.88,71.17,653.85,70.92,652.93,70.43z M657.78,67.3
		c0.48-0.5,0.72-1.23,0.72-2.16s-0.24-1.66-0.7-2.16s-1.05-0.76-1.73-0.76c-0.7,0-1.28,0.25-1.74,0.75
		c-0.46,0.5-0.69,1.22-0.69,2.17c0,0.94,0.23,1.66,0.68,2.16c0.45,0.5,1.03,0.76,1.71,0.76C656.72,68.06,657.3,67.81,657.78,67.3z"
		/>
	<path d="M669.11,59.62c0.62-0.34,1.34-0.5,2.16-0.5c0.97,0,1.84,0.25,2.62,0.74s1.4,1.19,1.86,2.1s0.68,1.97,0.68,3.17
		s-0.23,2.26-0.68,3.18c-0.46,0.92-1.07,1.62-1.86,2.12c-0.78,0.5-1.66,0.75-2.62,0.75c-0.81,0-1.53-0.17-2.15-0.5
		s-1.11-0.77-1.46-1.3v7.22h-3.59v-17.3h3.59v1.66C668.01,60.4,668.5,59.95,669.11,59.62z M672.04,63.01
		c-0.5-0.51-1.11-0.77-1.84-0.77c-0.71,0-1.32,0.26-1.82,0.78c-0.5,0.52-0.75,1.23-0.75,2.12s0.25,1.6,0.75,2.12s1.1,0.78,1.82,0.78
		c0.71,0,1.32-0.26,1.83-0.79s0.76-1.24,0.76-2.13S672.54,63.52,672.04,63.01z"/>
</g>
<g>
	<path d="M1126.73,456.29c1.16,0.62,2.06,1.48,2.7,2.59c0.64,1.11,0.96,2.4,0.96,3.85c0,1.44-0.32,2.72-0.96,3.84
		c-0.64,1.12-1.54,1.99-2.71,2.6s-2.52,0.92-4.06,0.92h-5.52v-14.74h5.52C1124.21,455.37,1125.56,455.68,1126.73,456.29z
		 M1125.59,465.89c0.76-0.74,1.13-1.79,1.13-3.15c0-1.36-0.38-2.42-1.13-3.17c-0.76-0.76-1.81-1.13-3.17-1.13h-1.7V467h1.7
		C1123.78,467,1124.84,466.63,1125.59,465.89z"/>
	<path d="M1143.38,465.11h-8.13c0.06,0.73,0.29,1.28,0.7,1.67c0.41,0.39,0.92,0.58,1.52,0.58c0.9,0,1.52-0.38,1.87-1.13h3.82
		c-0.2,0.77-0.55,1.46-1.06,2.08c-0.51,0.62-1.15,1.1-1.92,1.45c-0.77,0.35-1.63,0.52-2.58,0.52c-1.15,0-2.17-0.24-3.07-0.73
		c-0.9-0.49-1.6-1.19-2.1-2.1c-0.5-0.91-0.76-1.97-0.76-3.19c0-1.22,0.25-2.28,0.75-3.19c0.5-0.91,1.19-1.61,2.09-2.1
		s1.92-0.74,3.09-0.74c1.13,0,2.14,0.24,3.02,0.71s1.57,1.15,2.07,2.04c0.5,0.88,0.75,1.91,0.75,3.09
		C1143.44,464.4,1143.42,464.75,1143.38,465.11z M1139.77,463.12c0-0.62-0.21-1.11-0.63-1.47c-0.42-0.36-0.95-0.55-1.58-0.55
		c-0.6,0-1.11,0.17-1.52,0.52s-0.67,0.85-0.77,1.49H1139.77z"/>
	<path d="M1147.37,469.75c-0.8-0.35-1.43-0.83-1.89-1.44s-0.72-1.29-0.78-2.05h3.55c0.04,0.41,0.23,0.73,0.57,0.99
		s0.75,0.38,1.24,0.38c0.45,0,0.79-0.09,1.04-0.26c0.25-0.17,0.37-0.4,0.37-0.68c0-0.34-0.17-0.58-0.52-0.75
		c-0.35-0.16-0.92-0.34-1.7-0.54c-0.84-0.2-1.54-0.4-2.1-0.62c-0.56-0.22-1.04-0.56-1.45-1.03c-0.41-0.47-0.61-1.1-0.61-1.9
		c0-0.67,0.19-1.28,0.56-1.84s0.92-0.99,1.64-1.31c0.72-0.32,1.58-0.48,2.57-0.48c1.47,0,2.63,0.36,3.48,1.09
		c0.85,0.73,1.33,1.69,1.46,2.9h-3.32c-0.06-0.41-0.23-0.73-0.54-0.97c-0.3-0.24-0.7-0.36-1.19-0.36c-0.42,0-0.74,0.08-0.97,0.24
		c-0.22,0.16-0.34,0.38-0.34,0.66c0,0.34,0.18,0.59,0.54,0.76c0.36,0.17,0.91,0.34,1.67,0.5c0.87,0.22,1.58,0.44,2.12,0.66
		c0.55,0.22,1.03,0.57,1.44,1.05c0.41,0.48,0.63,1.13,0.64,1.94c0,0.69-0.19,1.3-0.58,1.84s-0.94,0.96-1.66,1.27
		c-0.72,0.31-1.56,0.46-2.51,0.46C1149.08,470.28,1148.17,470.1,1147.37,469.75z"/>
	<path d="M1164.21,470.11l-3.57-4.91v4.91h-3.59v-15.54h3.59v8.59l3.55-4.77h4.43l-4.87,5.88l4.91,5.84H1164.21z"/>
	<path d="M1176.56,467.07v3.04h-1.83c-1.3,0-2.32-0.32-3.04-0.96c-0.73-0.64-1.09-1.68-1.09-3.12v-4.66h-1.43v-2.98h1.43v-2.86h3.59
		v2.86h2.35v2.98h-2.35v4.7c0,0.35,0.08,0.6,0.25,0.76c0.17,0.15,0.45,0.23,0.84,0.23H1176.56z"/>
	<path d="M1180.79,469.54c-0.92-0.49-1.64-1.19-2.16-2.1c-0.53-0.91-0.79-1.97-0.79-3.19c0-1.2,0.27-2.26,0.8-3.18
		s1.26-1.62,2.18-2.11s1.96-0.74,3.11-0.74c1.15,0,2.18,0.25,3.11,0.74s1.65,1.19,2.18,2.11s0.8,1.98,0.8,3.18s-0.27,2.26-0.81,3.18
		c-0.54,0.92-1.27,1.62-2.21,2.11c-0.93,0.49-1.97,0.73-3.12,0.73C1182.74,470.28,1181.71,470.03,1180.79,469.54z M1185.64,466.42
		c0.48-0.5,0.72-1.23,0.72-2.16s-0.24-1.66-0.7-2.16s-1.05-0.76-1.73-0.76c-0.7,0-1.28,0.25-1.74,0.75
		c-0.46,0.5-0.69,1.22-0.69,2.17c0,0.94,0.23,1.66,0.68,2.16c0.45,0.5,1.03,0.76,1.71,0.76
		C1184.57,467.17,1185.16,466.92,1185.64,466.42z"/>
	<path d="M1196.97,458.73c0.62-0.34,1.34-0.5,2.16-0.5c0.97,0,1.84,0.25,2.62,0.74s1.4,1.19,1.86,2.1s0.68,1.97,0.68,3.17
		s-0.23,2.26-0.68,3.18c-0.46,0.92-1.07,1.62-1.86,2.12c-0.78,0.5-1.66,0.75-2.62,0.75c-0.81,0-1.53-0.17-2.15-0.5
		s-1.11-0.77-1.46-1.3v7.22h-3.59v-17.3h3.59v1.66C1195.87,459.51,1196.35,459.06,1196.97,458.73z M1199.9,462.12
		c-0.5-0.51-1.11-0.77-1.84-0.77c-0.71,0-1.32,0.26-1.82,0.78c-0.5,0.52-0.75,1.23-0.75,2.12s0.25,1.6,0.75,2.12s1.1,0.78,1.82,0.78
		c0.71,0,1.32-0.26,1.83-0.79s0.76-1.24,0.76-2.13S1200.4,462.63,1199.9,462.12z"/>
	<path d="M1215.22,461.25v2.98h-9.24v-2.98H1215.22z"/>
	<path d="M1229.02,462.46c-0.39,0.71-0.99,1.28-1.81,1.71c-0.81,0.43-1.82,0.65-3.02,0.65h-2.23v5.29h-3.59v-14.74h5.82
		c1.18,0,2.17,0.2,2.98,0.61c0.81,0.41,1.42,0.97,1.83,1.68c0.41,0.71,0.61,1.53,0.61,2.46
		C1229.6,460.97,1229.41,461.75,1229.02,462.46z M1225.45,461.48c0.34-0.32,0.5-0.78,0.5-1.37s-0.17-1.04-0.5-1.36
		s-0.85-0.48-1.53-0.48h-1.95v3.7h1.95C1224.6,461.96,1225.11,461.8,1225.45,461.48z"/>
	<path d="M1231.81,458.82c0.63-1.14,1.51-2.03,2.64-2.67c1.13-0.64,2.4-0.96,3.83-0.96c1.75,0,3.25,0.46,4.49,1.39
		c1.25,0.92,2.08,2.18,2.5,3.78h-3.95c-0.29-0.62-0.71-1.08-1.25-1.41c-0.54-0.32-1.15-0.48-1.84-0.48c-1.11,0-2,0.38-2.69,1.15
		c-0.69,0.77-1.03,1.8-1.03,3.09c0,1.29,0.34,2.32,1.03,3.09c0.69,0.77,1.58,1.16,2.69,1.16c0.69,0,1.3-0.16,1.84-0.48
		s0.96-0.79,1.25-1.41h3.95c-0.42,1.6-1.25,2.85-2.5,3.77s-2.74,1.38-4.49,1.38c-1.43,0-2.71-0.32-3.83-0.96
		c-1.13-0.64-2.01-1.52-2.64-2.66c-0.63-1.13-0.94-2.43-0.94-3.89C1230.86,461.26,1231.18,459.96,1231.81,458.82z"/>
</g>
<g>
	<path d="M1134.88,938.37c-0.85-0.35-1.54-0.87-2.05-1.55s-0.78-1.51-0.81-2.48h3.82c0.06,0.55,0.25,0.96,0.57,1.25
		c0.32,0.29,0.74,0.43,1.26,0.43c0.53,0,0.95-0.12,1.26-0.37c0.31-0.24,0.46-0.58,0.46-1.02c0-0.36-0.12-0.66-0.37-0.9
		c-0.25-0.24-0.55-0.43-0.9-0.59c-0.36-0.15-0.86-0.33-1.52-0.53c-0.95-0.29-1.73-0.59-2.33-0.88s-1.12-0.73-1.55-1.3
		c-0.43-0.57-0.65-1.32-0.65-2.25c0-1.37,0.5-2.45,1.49-3.22s2.29-1.17,3.88-1.17c1.62,0,2.93,0.39,3.93,1.17s1.53,1.86,1.6,3.24
		h-3.88c-0.03-0.48-0.2-0.85-0.53-1.12c-0.32-0.27-0.74-0.41-1.24-0.41c-0.43,0-0.78,0.12-1.05,0.35c-0.27,0.23-0.4,0.56-0.4,1
		c0,0.48,0.22,0.85,0.67,1.11c0.45,0.27,1.15,0.55,2.1,0.86c0.95,0.32,1.73,0.63,2.32,0.92s1.11,0.72,1.54,1.28
		c0.43,0.56,0.65,1.28,0.65,2.16c0,0.84-0.21,1.6-0.64,2.29c-0.43,0.69-1.05,1.23-1.86,1.64c-0.81,0.41-1.77,0.61-2.88,0.61
		C1136.7,938.89,1135.74,938.72,1134.88,938.37z"/>
	<path d="M1163.79,928.23c0.86,0.88,1.29,2.11,1.29,3.67v6.85h-3.57v-6.36c0-0.76-0.2-1.34-0.6-1.75s-0.95-0.62-1.65-0.62
		s-1.25,0.21-1.65,0.62c-0.4,0.41-0.6,1-0.6,1.75v6.36h-3.57v-6.36c0-0.76-0.2-1.34-0.6-1.75c-0.4-0.41-0.95-0.62-1.65-0.62
		s-1.25,0.21-1.65,0.62c-0.4,0.41-0.6,1-0.6,1.75v6.36h-3.59v-11.72h3.59v1.47c0.36-0.49,0.84-0.88,1.43-1.17s1.25-0.43,2-0.43
		c0.88,0,1.67,0.19,2.36,0.57c0.69,0.38,1.24,0.92,1.63,1.62c0.41-0.64,0.96-1.17,1.66-1.57s1.46-0.61,2.29-0.61
		C1161.77,926.9,1162.93,927.34,1163.79,928.23z"/>
	<path d="M1167.57,929.7c0.46-0.91,1.07-1.61,1.86-2.1s1.66-0.74,2.62-0.74c0.83,0,1.55,0.17,2.17,0.5c0.62,0.34,1.1,0.78,1.44,1.32
		v-1.66h3.59v11.72h-3.59v-1.66c-0.35,0.55-0.84,0.99-1.46,1.32s-1.35,0.5-2.17,0.5c-0.95,0-1.82-0.25-2.6-0.75s-1.4-1.2-1.86-2.12
		s-0.68-1.98-0.68-3.18S1167.12,930.61,1167.57,929.7z M1174.92,930.77c-0.5-0.52-1.1-0.78-1.82-0.78s-1.32,0.26-1.82,0.77
		s-0.75,1.21-0.75,2.11c0,0.9,0.25,1.61,0.75,2.13c0.5,0.52,1.1,0.79,1.82,0.79s1.32-0.26,1.82-0.78c0.5-0.52,0.75-1.23,0.75-2.12
		C1175.67,931.99,1175.42,931.29,1174.92,930.77z"/>
	<path d="M1187.03,927.46c0.63-0.37,1.33-0.56,2.1-0.56v3.8h-0.99c-0.9,0-1.57,0.19-2.02,0.58c-0.45,0.38-0.67,1.06-0.67,2.03v5.44
		h-3.59v-11.72h3.59v1.95C1185.87,928.34,1186.4,927.83,1187.03,927.46z"/>
	<path d="M1197.38,935.7v3.04h-1.83c-1.3,0-2.32-0.32-3.04-0.96c-0.73-0.64-1.09-1.68-1.09-3.12v-4.66h-1.43v-2.98h1.43v-2.86h3.59
		v2.86h2.35v2.98h-2.35v4.7c0,0.35,0.08,0.6,0.25,0.76s0.45,0.23,0.84,0.23H1197.38z"/>
	<path d="M1214.43,924v2.88h-3.91v11.87h-3.59v-11.87h-3.91V924H1214.43z"/>
	<path d="M1230.08,924l-5.23,14.74h-4.49l-5.23-14.74h3.82l3.65,11.13l3.67-11.13H1230.08z"/>
</g>
<g>
	<path d="M603.26,981v14.74h-3.59V981H603.26z"/>
	<path d="M616.29,985.24c0.82,0.89,1.23,2.11,1.23,3.66v6.85h-3.57v-6.36c0-0.79-0.2-1.39-0.61-1.83c-0.41-0.43-0.95-0.65-1.64-0.65
		c-0.69,0-1.23,0.22-1.64,0.65c-0.41,0.43-0.61,1.04-0.61,1.83v6.36h-3.59v-11.72h3.59v1.55c0.36-0.52,0.85-0.93,1.47-1.23
		c0.62-0.3,1.31-0.45,2.08-0.45C614.38,983.9,615.47,984.35,616.29,985.24z"/>
	<path d="M619.99,986.7c0.46-0.91,1.07-1.61,1.86-2.1s1.66-0.73,2.62-0.73c0.77,0,1.47,0.16,2.11,0.48s1.14,0.76,1.5,1.3v-5.44h3.59
		v15.54h-3.59v-1.68c-0.34,0.56-0.82,1.01-1.44,1.34c-0.62,0.34-1.35,0.5-2.17,0.5c-0.97,0-1.84-0.25-2.62-0.75
		c-0.78-0.5-1.4-1.2-1.86-2.12s-0.68-1.98-0.68-3.18S619.53,987.61,619.99,986.7z M627.34,987.77c-0.5-0.52-1.1-0.78-1.82-0.78
		s-1.32,0.26-1.82,0.77c-0.5,0.51-0.75,1.21-0.75,2.11s0.25,1.61,0.75,2.13c0.5,0.53,1.1,0.79,1.82,0.79s1.32-0.26,1.82-0.78
		c0.5-0.52,0.75-1.23,0.75-2.12C628.08,988.99,627.83,988.29,627.34,987.77z"/>
	<path d="M645.85,984.03v11.72h-3.59v-1.6c-0.36,0.52-0.86,0.94-1.48,1.25c-0.62,0.31-1.31,0.47-2.07,0.47c-0.9,0-1.69-0.2-2.37-0.6
		c-0.69-0.4-1.22-0.98-1.6-1.73s-0.57-1.65-0.57-2.67v-6.85h3.57v6.36c0,0.78,0.2,1.39,0.61,1.83c0.41,0.43,0.95,0.65,1.64,0.65
		c0.7,0,1.25-0.22,1.66-0.65c0.41-0.43,0.61-1.04,0.61-1.83v-6.36H645.85z"/>
	<path d="M650.47,995.39c-0.8-0.35-1.43-0.83-1.89-1.44c-0.46-0.61-0.72-1.29-0.78-2.05h3.55c0.04,0.41,0.23,0.73,0.57,0.99
		s0.75,0.38,1.24,0.38c0.45,0,0.79-0.09,1.04-0.26c0.25-0.17,0.37-0.4,0.37-0.68c0-0.34-0.17-0.58-0.52-0.75
		c-0.35-0.16-0.92-0.34-1.7-0.54c-0.84-0.2-1.54-0.4-2.1-0.62c-0.56-0.22-1.04-0.56-1.45-1.03c-0.41-0.47-0.61-1.1-0.61-1.9
		c0-0.67,0.19-1.28,0.56-1.84c0.37-0.55,0.92-0.99,1.64-1.31c0.72-0.32,1.58-0.48,2.57-0.48c1.47,0,2.63,0.36,3.48,1.09
		c0.85,0.73,1.33,1.69,1.46,2.9h-3.32c-0.06-0.41-0.23-0.73-0.54-0.97s-0.7-0.36-1.19-0.36c-0.42,0-0.74,0.08-0.97,0.24
		c-0.22,0.16-0.34,0.38-0.34,0.66c0,0.34,0.18,0.59,0.54,0.76c0.36,0.17,0.91,0.34,1.67,0.5c0.87,0.22,1.58,0.44,2.12,0.66
		c0.55,0.22,1.03,0.57,1.44,1.05c0.41,0.48,0.63,1.13,0.64,1.94c0,0.69-0.19,1.3-0.58,1.84s-0.94,0.96-1.66,1.27
		c-0.72,0.31-1.56,0.46-2.51,0.46C652.18,995.92,651.27,995.74,650.47,995.39z"/>
	<path d="M666.68,992.7v3.04h-1.83c-1.3,0-2.32-0.32-3.04-0.96c-0.73-0.64-1.09-1.68-1.09-3.12v-4.66h-1.43v-2.98h1.43v-2.86h3.59
		v2.86h2.35v2.98h-2.35v4.7c0,0.35,0.08,0.6,0.25,0.76c0.17,0.15,0.45,0.23,0.84,0.23H666.68z"/>
	<path d="M673.84,984.46c0.63-0.37,1.33-0.56,2.1-0.56v3.8h-0.99c-0.9,0-1.57,0.19-2.02,0.58c-0.45,0.39-0.67,1.06-0.67,2.03v5.44
		h-3.59v-11.72h3.59v1.95C672.69,985.34,673.21,984.83,673.84,984.46z"/>
	<path d="M689.63,984.03l-7.35,17.28h-3.86l2.69-5.96l-4.77-11.32h4.01l2.71,7.33l2.69-7.33H689.63z"/>
	<path d="M621.21,1020.95l-3.07-5.56h-0.86v5.56h-3.59v-14.74h6.03c1.16,0,2.15,0.2,2.97,0.61c0.82,0.41,1.43,0.96,1.84,1.67
		s0.61,1.49,0.61,2.36c0,0.98-0.28,1.86-0.83,2.62c-0.55,0.77-1.37,1.32-2.45,1.64l3.4,5.84H621.21z M617.28,1012.84h2.23
		c0.66,0,1.15-0.16,1.48-0.48s0.49-0.78,0.49-1.37c0-0.56-0.16-1-0.49-1.32s-0.82-0.48-1.48-0.48h-2.23V1012.84z"/>
	<path d="M629.61,1020.38c-0.92-0.49-1.64-1.19-2.16-2.1c-0.53-0.91-0.79-1.97-0.79-3.19c0-1.2,0.27-2.26,0.8-3.18
		c0.53-0.92,1.26-1.62,2.18-2.11s1.96-0.74,3.11-0.74c1.15,0,2.18,0.25,3.11,0.74s1.65,1.19,2.18,2.11c0.53,0.92,0.8,1.98,0.8,3.18
		c0,1.21-0.27,2.27-0.81,3.18c-0.54,0.92-1.27,1.62-2.21,2.11c-0.93,0.49-1.97,0.73-3.12,0.73
		C631.56,1021.12,630.53,1020.87,629.61,1020.38z M634.47,1017.25c0.48-0.5,0.72-1.23,0.72-2.16c0-0.94-0.24-1.66-0.7-2.16
		s-1.05-0.76-1.73-0.76c-0.7,0-1.28,0.25-1.74,0.74c-0.46,0.5-0.69,1.22-0.69,2.17c0,0.94,0.23,1.66,0.68,2.16
		c0.45,0.5,1.03,0.76,1.71,0.76C633.4,1018.01,633.98,1017.76,634.47,1017.25z"/>
	<path d="M645.8,1009.57c0.63-0.34,1.35-0.5,2.16-0.5c0.97,0,1.84,0.25,2.62,0.74s1.4,1.19,1.86,2.1s0.68,1.97,0.68,3.17
		s-0.23,2.26-0.68,3.18c-0.46,0.92-1.07,1.62-1.86,2.12c-0.78,0.5-1.66,0.75-2.62,0.75c-0.83,0-1.55-0.16-2.16-0.49
		c-0.62-0.33-1.1-0.77-1.45-1.31v1.64h-3.59v-15.54h3.59v5.48C644.68,1010.34,645.17,1009.9,645.8,1009.57z M648.73,1012.96
		c-0.5-0.51-1.11-0.77-1.84-0.77c-0.71,0-1.32,0.26-1.82,0.78c-0.5,0.52-0.75,1.23-0.75,2.12c0,0.9,0.25,1.6,0.75,2.12
		c0.5,0.52,1.1,0.78,1.82,0.78c0.71,0,1.32-0.26,1.83-0.79c0.5-0.53,0.76-1.24,0.76-2.13S649.22,1013.47,648.73,1012.96z"/>
	<path d="M657.25,1020.38c-0.92-0.49-1.64-1.19-2.16-2.1c-0.53-0.91-0.79-1.97-0.79-3.19c0-1.2,0.27-2.26,0.8-3.18
		c0.53-0.92,1.26-1.62,2.18-2.11s1.96-0.74,3.11-0.74c1.15,0,2.18,0.25,3.11,0.74s1.65,1.19,2.18,2.11c0.53,0.92,0.8,1.98,0.8,3.18
		c0,1.21-0.27,2.27-0.81,3.18c-0.54,0.92-1.27,1.62-2.21,2.11c-0.93,0.49-1.97,0.73-3.12,0.73
		C659.2,1021.12,658.17,1020.87,657.25,1020.38z M662.1,1017.25c0.48-0.5,0.72-1.23,0.72-2.16c0-0.94-0.24-1.66-0.7-2.16
		s-1.05-0.76-1.73-0.76c-0.7,0-1.28,0.25-1.74,0.74c-0.46,0.5-0.69,1.22-0.69,2.17c0,0.94,0.23,1.66,0.68,2.16
		c0.45,0.5,1.03,0.76,1.71,0.76C661.04,1018.01,661.62,1017.76,662.1,1017.25z"/>
	<path d="M674.92,1017.9v3.04h-1.83c-1.3,0-2.32-0.32-3.04-0.96c-0.73-0.64-1.09-1.68-1.09-3.12v-4.66h-1.43v-2.98h1.43v-2.86h3.59
		v2.86h2.35v2.98h-2.35v4.7c0,0.35,0.08,0.6,0.25,0.76s0.45,0.23,0.84,0.23H674.92z"/>
</g>
<g>
	<path d="M40.79,59.18c-0.39,0.71-0.99,1.28-1.81,1.71c-0.81,0.43-1.82,0.65-3.02,0.65h-2.23v5.29h-3.59V52.1h5.82
		c1.18,0,2.17,0.2,2.98,0.61c0.81,0.41,1.42,0.97,1.83,1.68c0.41,0.71,0.61,1.53,0.61,2.46C41.38,57.7,41.19,58.48,40.79,59.18z
		 M37.22,58.21c0.34-0.32,0.5-0.78,0.5-1.37s-0.17-1.04-0.5-1.36s-0.85-0.48-1.53-0.48h-1.95v3.7h1.95
		C36.38,58.69,36.89,58.53,37.22,58.21z"/>
	<path d="M53.69,56.33c0.81,0.89,1.22,2.11,1.22,3.67v6.85h-3.57v-6.36c0-0.78-0.2-1.39-0.61-1.83C50.32,58.21,49.77,58,49.09,58
		c-0.69,0-1.23,0.22-1.64,0.65c-0.41,0.43-0.61,1.04-0.61,1.83v6.36h-3.59V51.3h3.59v5.4c0.36-0.52,0.86-0.93,1.49-1.24
		c0.63-0.31,1.34-0.46,2.12-0.46C51.8,54.99,52.87,55.44,53.69,56.33z"/>
	<path d="M59.64,66.27c-0.92-0.49-1.64-1.19-2.16-2.1c-0.53-0.91-0.79-1.97-0.79-3.19c0-1.2,0.27-2.26,0.8-3.18s1.26-1.62,2.18-2.11
		s1.96-0.74,3.11-0.74c1.15,0,2.18,0.25,3.11,0.74s1.65,1.19,2.18,2.11s0.8,1.98,0.8,3.18s-0.27,2.26-0.81,3.18
		c-0.54,0.92-1.27,1.62-2.21,2.11c-0.93,0.49-1.97,0.73-3.12,0.73C61.59,67.01,60.56,66.76,59.64,66.27z M64.49,63.14
		c0.48-0.5,0.72-1.23,0.72-2.16c0-0.94-0.24-1.66-0.7-2.16s-1.05-0.76-1.73-0.76c-0.7,0-1.28,0.25-1.74,0.75
		c-0.46,0.5-0.69,1.22-0.69,2.17c0,0.94,0.23,1.66,0.68,2.16c0.45,0.5,1.03,0.76,1.71,0.76C63.42,63.9,64.01,63.65,64.49,63.14z"/>
	<path d="M81.21,56.33c0.82,0.89,1.23,2.11,1.23,3.67v6.85h-3.57v-6.36c0-0.78-0.2-1.39-0.61-1.83C77.85,58.21,77.31,58,76.62,58
		c-0.69,0-1.23,0.22-1.64,0.65c-0.41,0.43-0.61,1.04-0.61,1.83v6.36h-3.59V55.12h3.59v1.55c0.36-0.52,0.85-0.93,1.47-1.23
		c0.62-0.3,1.31-0.45,2.08-0.45C79.29,54.99,80.39,55.44,81.21,56.33z"/>
	<path d="M95.92,61.84h-8.13c0.06,0.73,0.29,1.29,0.7,1.67s0.92,0.58,1.52,0.58c0.9,0,1.52-0.38,1.87-1.13h3.82
		c-0.2,0.77-0.55,1.46-1.06,2.08c-0.51,0.62-1.15,1.1-1.92,1.45s-1.63,0.52-2.58,0.52c-1.15,0-2.17-0.24-3.07-0.73
		c-0.9-0.49-1.6-1.19-2.1-2.1c-0.5-0.91-0.76-1.97-0.76-3.19c0-1.22,0.25-2.28,0.75-3.19c0.5-0.91,1.19-1.61,2.09-2.1
		s1.92-0.74,3.09-0.74c1.13,0,2.14,0.24,3.02,0.71c0.88,0.48,1.57,1.16,2.07,2.04s0.75,1.91,0.75,3.09
		C95.98,61.13,95.96,61.48,95.92,61.84z M92.31,59.84c0-0.62-0.21-1.11-0.63-1.47c-0.42-0.36-0.95-0.55-1.58-0.55
		c-0.6,0-1.11,0.17-1.52,0.53c-0.41,0.35-0.67,0.85-0.77,1.49H92.31z"/>
</g>
<g>
	<path d="M41.02,617.61h4.7v2.77h-8.29v-14.74h3.59V617.61z"/>
	<path d="M47.71,606.89c-0.4-0.37-0.6-0.83-0.6-1.38c0-0.56,0.2-1.03,0.6-1.4s0.91-0.56,1.54-0.56c0.62,0,1.12,0.19,1.52,0.56
		c0.4,0.37,0.6,0.84,0.6,1.4c0,0.55-0.2,1-0.6,1.38c-0.4,0.37-0.91,0.56-1.52,0.56C48.63,607.45,48.11,607.26,47.71,606.89z
		 M51.04,608.67v11.72h-3.59v-11.72H51.04z"/>
	<path d="M60.27,609c0.62,0.34,1.1,0.78,1.44,1.32v-1.66h3.59v11.7c0,1.08-0.21,2.05-0.64,2.93s-1.08,1.57-1.95,2.09
		c-0.88,0.52-1.96,0.78-3.27,0.78c-1.74,0-3.14-0.41-4.22-1.23c-1.08-0.82-1.69-1.93-1.85-3.33h3.55c0.11,0.45,0.38,0.8,0.8,1.06
		c0.42,0.26,0.94,0.39,1.55,0.39c0.74,0,1.33-0.21,1.77-0.64c0.44-0.43,0.66-1.11,0.66-2.05v-1.66c-0.35,0.55-0.83,0.99-1.45,1.33
		s-1.34,0.51-2.16,0.51c-0.97,0-1.84-0.25-2.62-0.75c-0.78-0.5-1.4-1.2-1.86-2.12c-0.46-0.92-0.68-1.98-0.68-3.18
		s0.23-2.26,0.68-3.17s1.07-1.61,1.86-2.1s1.66-0.74,2.62-0.74C58.92,608.5,59.65,608.67,60.27,609z M60.96,612.4
		c-0.5-0.52-1.1-0.78-1.82-0.78s-1.32,0.25-1.82,0.77c-0.5,0.51-0.75,1.21-0.75,2.11c0,0.9,0.25,1.61,0.75,2.13
		c0.5,0.53,1.1,0.79,1.82,0.79s1.32-0.26,1.82-0.78c0.5-0.52,0.75-1.22,0.75-2.12C61.71,613.63,61.46,612.92,60.96,612.4z"/>
	<path d="M78.34,609.87c0.81,0.89,1.22,2.11,1.22,3.66v6.85h-3.57v-6.36c0-0.78-0.2-1.39-0.61-1.83c-0.41-0.43-0.95-0.65-1.64-0.65
		c-0.69,0-1.23,0.22-1.64,0.65c-0.41,0.43-0.61,1.04-0.61,1.83v6.36H67.9v-15.54h3.59v5.4c0.36-0.52,0.86-0.93,1.49-1.24
		c0.63-0.31,1.34-0.46,2.12-0.46C76.45,608.54,77.53,608.98,78.34,609.87z"/>
	<path d="M88.59,617.34v3.04h-1.83c-1.3,0-2.32-0.32-3.04-0.96c-0.73-0.64-1.09-1.68-1.09-3.12v-4.66H81.2v-2.98h1.43v-2.86h3.59
		v2.86h2.35v2.98h-2.35v4.7c0,0.35,0.08,0.6,0.25,0.76c0.17,0.15,0.45,0.23,0.84,0.23H88.59z"/>
	<path d="M9.98,634.3c0.63-1.14,1.51-2.03,2.64-2.67c1.13-0.64,2.4-0.96,3.83-0.96c1.75,0,3.25,0.46,4.49,1.39s2.08,2.18,2.5,3.78
		h-3.95c-0.29-0.62-0.71-1.08-1.25-1.41c-0.54-0.32-1.15-0.48-1.84-0.48c-1.11,0-2,0.38-2.69,1.15c-0.69,0.77-1.03,1.8-1.03,3.09
		c0,1.29,0.34,2.32,1.03,3.09c0.69,0.77,1.58,1.16,2.69,1.16c0.69,0,1.3-0.16,1.84-0.48s0.96-0.79,1.25-1.41h3.95
		c-0.42,1.6-1.25,2.85-2.5,3.77s-2.74,1.38-4.49,1.38c-1.43,0-2.71-0.32-3.83-0.96s-2.01-1.52-2.64-2.66
		c-0.63-1.13-0.94-2.43-0.94-3.89C9.03,636.74,9.35,635.44,9.98,634.3z"/>
	<path d="M27.88,645.02c-0.92-0.49-1.64-1.19-2.16-2.1c-0.53-0.91-0.79-1.97-0.79-3.19c0-1.2,0.27-2.26,0.8-3.18
		s1.26-1.62,2.18-2.11s1.96-0.74,3.11-0.74c1.15,0,2.18,0.25,3.11,0.74s1.65,1.19,2.18,2.11s0.8,1.98,0.8,3.18s-0.27,2.26-0.81,3.18
		c-0.54,0.92-1.27,1.62-2.21,2.11c-0.93,0.49-1.97,0.74-3.12,0.74C29.83,645.75,28.8,645.51,27.88,645.02z M32.73,641.89
		c0.48-0.5,0.72-1.22,0.72-2.16c0-0.94-0.24-1.66-0.7-2.16s-1.05-0.76-1.73-0.76c-0.7,0-1.28,0.25-1.74,0.75
		c-0.46,0.5-0.69,1.22-0.69,2.17c0,0.94,0.23,1.66,0.68,2.16c0.45,0.5,1.03,0.76,1.71,0.76C31.66,642.64,32.25,642.39,32.73,641.89z
		"/>
	<path d="M49.45,635.07c0.82,0.89,1.23,2.11,1.23,3.66v6.85H47.1v-6.36c0-0.78-0.2-1.39-0.61-1.83c-0.41-0.43-0.95-0.65-1.64-0.65
		c-0.69,0-1.23,0.22-1.64,0.65c-0.41,0.43-0.61,1.04-0.61,1.83v6.36h-3.59v-11.72h3.59v1.55c0.36-0.52,0.85-0.93,1.47-1.23
		c0.62-0.3,1.31-0.45,2.08-0.45C47.53,633.74,48.63,634.18,49.45,635.07z"/>
	<path d="M59.7,642.54v3.04h-1.83c-1.3,0-2.32-0.32-3.04-0.96c-0.73-0.64-1.09-1.68-1.09-3.12v-4.66h-1.43v-2.98h1.43v-2.86h3.59
		v2.86h2.35v2.98h-2.35v4.7c0,0.35,0.08,0.6,0.25,0.76c0.17,0.15,0.45,0.23,0.84,0.23H59.7z"/>
	<path d="M66.87,634.3c0.63-0.37,1.33-0.56,2.1-0.56v3.8h-0.99c-0.9,0-1.57,0.19-2.02,0.58c-0.45,0.39-0.67,1.06-0.67,2.03v5.44
		H61.7v-11.72h3.59v1.95C65.71,635.17,66.24,634.67,66.87,634.3z"/>
	<path d="M72.92,645.02c-0.92-0.49-1.64-1.19-2.16-2.1c-0.53-0.91-0.79-1.97-0.79-3.19c0-1.2,0.27-2.26,0.8-3.18
		s1.26-1.62,2.18-2.11s1.96-0.74,3.11-0.74c1.15,0,2.18,0.25,3.11,0.74s1.65,1.19,2.18,2.11s0.8,1.98,0.8,3.18s-0.27,2.26-0.81,3.18
		c-0.54,0.92-1.27,1.62-2.21,2.11c-0.93,0.49-1.97,0.74-3.12,0.74C74.87,645.75,73.84,645.51,72.92,645.02z M77.77,641.89
		c0.48-0.5,0.72-1.22,0.72-2.16c0-0.94-0.24-1.66-0.7-2.16s-1.05-0.76-1.73-0.76c-0.7,0-1.28,0.25-1.74,0.75
		c-0.46,0.5-0.69,1.22-0.69,2.17c0,0.94,0.23,1.66,0.68,2.16c0.45,0.5,1.03,0.76,1.71,0.76C76.71,642.64,77.29,642.39,77.77,641.89z
		"/>
	<path d="M87.65,630.04v15.54h-3.59v-15.54H87.65z"/>
	<path d="M93.85,630.04v15.54h-3.59v-15.54H93.85z"/>
	<path d="M107.44,640.59h-8.13c0.06,0.73,0.29,1.28,0.7,1.67c0.41,0.39,0.92,0.58,1.52,0.58c0.9,0,1.52-0.38,1.87-1.13h3.82
		c-0.2,0.77-0.55,1.46-1.06,2.08c-0.51,0.62-1.15,1.1-1.92,1.45c-0.77,0.35-1.63,0.53-2.58,0.53c-1.15,0-2.17-0.25-3.07-0.74
		c-0.9-0.49-1.6-1.19-2.1-2.1s-0.76-1.97-0.76-3.19s0.25-2.28,0.75-3.19c0.5-0.91,1.19-1.61,2.09-2.1s1.92-0.74,3.09-0.74
		c1.13,0,2.14,0.24,3.02,0.71c0.88,0.48,1.57,1.15,2.07,2.04c0.5,0.88,0.75,1.91,0.75,3.09
		C107.5,639.87,107.48,640.22,107.44,640.59z M103.83,638.59c0-0.62-0.21-1.11-0.63-1.47s-0.95-0.55-1.58-0.55
		c-0.6,0-1.11,0.17-1.52,0.52c-0.41,0.35-0.67,0.85-0.77,1.49H103.83z"/>
	<path d="M114.56,634.3c0.63-0.37,1.33-0.56,2.1-0.56v3.8h-0.99c-0.9,0-1.57,0.19-2.02,0.58c-0.45,0.39-0.67,1.06-0.67,2.03v5.44
		h-3.59v-11.72h3.59v1.95C113.4,635.17,113.93,634.67,114.56,634.3z"/>
</g>
<g>
	<path d="M33.21,930.77c-0.39,0.71-0.99,1.28-1.81,1.71c-0.81,0.43-1.82,0.65-3.02,0.65h-2.23v5.29h-3.59v-14.74h5.82
		c1.18,0,2.17,0.2,2.98,0.61c0.81,0.41,1.42,0.97,1.83,1.68c0.41,0.71,0.61,1.53,0.61,2.46C33.8,929.28,33.6,930.06,33.21,930.77z
		 M29.64,929.79c0.34-0.32,0.5-0.78,0.5-1.37s-0.17-1.04-0.5-1.37s-0.85-0.48-1.53-0.48h-1.95v3.7h1.95
		C28.79,930.27,29.3,930.11,29.64,929.79z"/>
	<path d="M40.83,927.13c0.63-0.37,1.33-0.56,2.1-0.56v3.8h-0.99c-0.9,0-1.57,0.19-2.02,0.58c-0.45,0.38-0.67,1.06-0.67,2.03v5.44
		h-3.59V926.7h3.59v1.95C39.68,928.01,40.2,927.5,40.83,927.13z"/>
	<path d="M44.92,924.93c-0.4-0.37-0.6-0.83-0.6-1.38c0-0.56,0.2-1.03,0.6-1.4c0.4-0.37,0.91-0.56,1.54-0.56
		c0.62,0,1.12,0.19,1.52,0.56c0.4,0.37,0.6,0.84,0.6,1.4c0,0.55-0.2,1-0.6,1.38c-0.4,0.37-0.91,0.56-1.52,0.56
		C45.83,925.48,45.32,925.3,44.92,924.93z M48.25,926.7v11.72h-3.59V926.7H48.25z"/>
	<path d="M61.28,927.91c0.82,0.89,1.23,2.11,1.23,3.67v6.85h-3.57v-6.36c0-0.78-0.2-1.39-0.61-1.83c-0.41-0.43-0.95-0.65-1.64-0.65
		c-0.69,0-1.23,0.22-1.64,0.65c-0.41,0.43-0.61,1.04-0.61,1.83v6.36h-3.59V926.7h3.59v1.55c0.36-0.52,0.85-0.93,1.47-1.23
		c0.62-0.3,1.31-0.45,2.08-0.45C59.36,926.58,60.46,927.02,61.28,927.91z"/>
	<path d="M71.53,935.38v3.04h-1.83c-1.3,0-2.32-0.32-3.04-0.96c-0.73-0.64-1.09-1.68-1.09-3.12v-4.66h-1.43v-2.98h1.43v-2.86h3.59
		v2.86h2.35v2.98h-2.35v4.7c0,0.35,0.08,0.6,0.25,0.76s0.45,0.23,0.84,0.23H71.53z"/>
	<path d="M84.51,933.42h-8.13c0.06,0.73,0.29,1.29,0.7,1.67s0.92,0.58,1.52,0.58c0.9,0,1.52-0.38,1.87-1.13h3.82
		c-0.2,0.77-0.55,1.46-1.06,2.08c-0.51,0.62-1.15,1.1-1.92,1.45c-0.77,0.35-1.63,0.53-2.58,0.53c-1.15,0-2.17-0.24-3.07-0.73
		c-0.9-0.49-1.6-1.19-2.1-2.1c-0.5-0.91-0.76-1.97-0.76-3.19c0-1.22,0.25-2.28,0.75-3.19c0.5-0.91,1.19-1.61,2.09-2.1
		s1.92-0.74,3.09-0.74c1.13,0,2.14,0.24,3.02,0.71s1.57,1.15,2.07,2.04c0.5,0.88,0.75,1.91,0.75,3.09
		C84.58,932.71,84.56,933.06,84.51,933.42z M80.9,931.43c0-0.62-0.21-1.11-0.63-1.47c-0.42-0.36-0.95-0.55-1.58-0.55
		c-0.6,0-1.11,0.17-1.52,0.52c-0.41,0.35-0.67,0.85-0.77,1.49H80.9z"/>
	<path d="M91.63,927.13c0.63-0.37,1.33-0.56,2.1-0.56v3.8h-0.99c-0.9,0-1.57,0.19-2.02,0.58c-0.45,0.38-0.67,1.06-0.67,2.03v5.44
		h-3.59V926.7h3.59v1.95C90.48,928.01,91,927.5,91.63,927.13z"/>
</g>
<g>
	<path d="M1160.49,188.64c-0.85-0.35-1.54-0.87-2.05-1.55c-0.51-0.69-0.78-1.51-0.81-2.48h3.82c0.05,0.55,0.24,0.96,0.57,1.25
		c0.32,0.29,0.74,0.43,1.26,0.43c0.53,0,0.95-0.12,1.26-0.37c0.31-0.24,0.46-0.58,0.46-1.02c0-0.36-0.12-0.66-0.37-0.9
		c-0.25-0.24-0.55-0.43-0.9-0.59c-0.36-0.15-0.86-0.33-1.52-0.52c-0.95-0.29-1.73-0.59-2.33-0.88s-1.12-0.73-1.55-1.3
		c-0.44-0.57-0.65-1.32-0.65-2.25c0-1.37,0.5-2.45,1.49-3.22c0.99-0.78,2.29-1.17,3.88-1.17c1.62,0,2.93,0.39,3.93,1.17
		c0.99,0.78,1.53,1.86,1.6,3.24h-3.88c-0.03-0.48-0.2-0.85-0.53-1.12s-0.74-0.41-1.24-0.41c-0.43,0-0.78,0.12-1.05,0.35
		c-0.27,0.23-0.4,0.56-0.4,1c0,0.48,0.22,0.85,0.67,1.11c0.45,0.27,1.15,0.55,2.1,0.86c0.95,0.32,1.72,0.63,2.32,0.92
		c0.59,0.29,1.11,0.72,1.54,1.28s0.65,1.28,0.65,2.16c0,0.84-0.21,1.6-0.64,2.29c-0.43,0.69-1.04,1.23-1.86,1.64
		c-0.81,0.41-1.77,0.61-2.88,0.61C1162.31,189.17,1161.34,188.99,1160.49,188.64z"/>
	<path d="M1181.95,184.02h-8.13c0.05,0.73,0.29,1.28,0.7,1.67c0.41,0.39,0.92,0.58,1.52,0.58c0.9,0,1.52-0.38,1.87-1.13h3.82
		c-0.2,0.77-0.55,1.46-1.06,2.08c-0.51,0.62-1.15,1.1-1.92,1.45c-0.77,0.35-1.63,0.52-2.58,0.52c-1.15,0-2.17-0.24-3.07-0.73
		s-1.6-1.19-2.1-2.1c-0.5-0.91-0.76-1.97-0.76-3.19c0-1.22,0.25-2.28,0.75-3.19c0.5-0.91,1.19-1.61,2.09-2.1
		c0.9-0.49,1.93-0.74,3.09-0.74c1.13,0,2.14,0.24,3.02,0.71c0.88,0.48,1.57,1.15,2.07,2.04c0.5,0.88,0.75,1.91,0.75,3.09
		C1182.02,183.31,1181.99,183.66,1181.95,184.02z M1178.34,182.03c0-0.62-0.21-1.11-0.63-1.47c-0.42-0.36-0.95-0.55-1.58-0.55
		c-0.6,0-1.11,0.17-1.52,0.52c-0.41,0.35-0.67,0.85-0.77,1.49H1178.34z"/>
	<path d="M1189.07,177.73c0.63-0.37,1.33-0.56,2.1-0.56v3.8h-0.99c-0.9,0-1.57,0.19-2.02,0.58s-0.67,1.06-0.67,2.03v5.44h-3.59
		V177.3h3.59v1.95C1187.92,178.61,1188.44,178.1,1189.07,177.73z"/>
	<path d="M1198.16,185.66l2.54-8.36h3.82l-4.16,11.72h-4.43l-4.16-11.72h3.84L1198.16,185.66z"/>
	<path d="M1217.02,184.02h-8.13c0.06,0.73,0.29,1.28,0.7,1.67c0.41,0.39,0.92,0.58,1.52,0.58c0.89,0,1.52-0.38,1.87-1.13h3.82
		c-0.2,0.77-0.55,1.46-1.06,2.08c-0.51,0.62-1.15,1.1-1.92,1.45c-0.77,0.35-1.63,0.52-2.58,0.52c-1.15,0-2.17-0.24-3.06-0.73
		c-0.9-0.49-1.6-1.19-2.1-2.1c-0.5-0.91-0.76-1.97-0.76-3.19c0-1.22,0.25-2.28,0.75-3.19c0.5-0.91,1.19-1.61,2.09-2.1
		c0.89-0.49,1.92-0.74,3.09-0.74c1.13,0,2.14,0.24,3.03,0.71c0.88,0.48,1.57,1.15,2.07,2.04c0.5,0.88,0.74,1.91,0.74,3.09
		C1217.08,183.31,1217.06,183.66,1217.02,184.02z M1213.41,182.03c0-0.62-0.21-1.11-0.63-1.47c-0.42-0.36-0.95-0.55-1.57-0.55
		c-0.6,0-1.11,0.17-1.52,0.52c-0.41,0.35-0.67,0.85-0.77,1.49H1213.41z"/>
	<path d="M1224.14,177.73c0.63-0.37,1.33-0.56,2.1-0.56v3.8h-0.99c-0.9,0-1.57,0.19-2.02,0.58c-0.45,0.39-0.67,1.06-0.67,2.03v5.44
		h-3.59V177.3h3.59v1.95C1222.99,178.61,1223.51,178.1,1224.14,177.73z"/>
</g>
</svg>
