<svg xmlns="http://www.w3.org/2000/svg" width="125.046" height="48.164" viewBox="0 0 125.046 48.164"><defs><style>.a{fill:#4515b4;}.b{fill:#24c1af;}.c{fill:#61ee89;}.d{fill:#78cdf6;}</style></defs><g transform="translate(-130.233 -184.849)"><g transform="translate(187.029 191.025)"><g transform="translate(0 0)"><path class="a" d="M399.876,249.283h-6.708V213.442h6.708Z" transform="translate(-393.168 -213.442)"/></g><g transform="translate(11.156 0)"><path class="a" d="M451.521,218.473h-6.708v-5.031h6.708Zm0,30.809h-6.708V224.424h6.708Z" transform="translate(-444.813 -213.442)"/></g><g transform="translate(21.851 10.522)"><path class="a" d="M500.578,262.614l.3,3.561a9.094,9.094,0,0,1,3.056-2.964A7.933,7.933,0,0,1,508,262.155a7.394,7.394,0,0,1,5.882,2.424q2.113,2.425,2.113,7.662v15.232h-6.732V272.264a5.953,5.953,0,0,0-.93-3.779,3.43,3.43,0,0,0-2.792-1.114,5.864,5.864,0,0,0-2.631.563,5.139,5.139,0,0,0-1.872,1.551v17.989h-6.708V262.614Z" transform="translate(-494.329 -262.155)"/></g><g transform="translate(44.977 10.982)"><path class="a" d="M612.875,272.185h.138l3.813-7.9h7.582l-7.49,12.291,7.743,12.567H617.1l-4.066-8.248-4.066,8.248h-7.582l7.742-12.567-7.512-12.291h7.536Z" transform="translate(-601.388 -264.282)"/></g></g><g transform="translate(139.419 184.849)"><path class="b" d="M187.564,204.438l-14.806-15.024,4.62-4.552L187.564,195.2l10.2-10.35,4.62,4.552Z" transform="translate(-172.758 -184.849)"/></g><g transform="translate(139.419 213.424)"><path class="c" d="M177.377,336.725l-4.62-4.552,14.819-15.037,14.806,15.024-4.62,4.552-10.187-10.337Z" transform="translate(-172.758 -317.136)"/></g><g transform="translate(158.542 193.943)"><path class="d" d="M276.326,256.576l-15.038-14.819,15.024-14.806,4.552,4.619-10.336,10.187,10.35,10.2Z" transform="translate(-261.289 -226.952)"/></g><g transform="translate(130.233 193.943)"><path class="a" d="M134.8,256.576l-4.552-4.619,10.336-10.187-10.35-10.2,4.552-4.619,15.038,14.819Z" transform="translate(-130.233 -226.952)"/></g></g></svg>