<svg xmlns="http://www.w3.org/2000/svg" width="200.41" height="33.33" viewBox="0 0 200.41 33.33">
    <g transform="translate(949.237 -227.392)">
        <path
            d="M-438.445,366.888a5.774,5.774,0,0,0-4.617,2.165v-1.8h-3.175v16.744h3.175v-9.31c0-2.815,1.659-4.764,4.04-4.764a5.7,5.7,0,0,1,2.742.65l.216.144.794-3.176-.144-.072A6.5,6.5,0,0,0-438.445,366.888Z"
            transform="translate(-458.648 -127.196)" fill="#2a2a48" />
        <path
            d="M-288.3,369.125a7.5,7.5,0,0,0-5.555-2.237,8.374,8.374,0,0,0-8.369,8.733,8.374,8.374,0,0,0,8.369,8.733,7.5,7.5,0,0,0,5.555-2.237v1.877h3.247V367.177H-288.3Zm-5.267,12.2a5.348,5.348,0,0,1-5.411-5.7,5.389,5.389,0,0,1,5.411-5.7,5.348,5.348,0,0,1,5.411,5.7A5.431,5.431,0,0,1-293.567,381.323Z"
            transform="translate(-589.962 -127.196)" fill="#2a2a48" />
        <path d="M-44.573,370.161h-3.174v16.744h3.174Z" transform="translate(-822.002 -130.18)"
            fill="#2a2a48" />
        <path
            d="M-52.133,282.578a2.143,2.143,0,0,0-2.164,2.237,2.126,2.126,0,0,0,2.164,2.165,2.188,2.188,0,0,0,2.237-2.165A2.2,2.2,0,0,0-52.133,282.578Z"
            transform="translate(-816.029 -50.32)" fill="#2a2a48" />
        <path
            d="M50.447,284.785a7.5,7.5,0,0,0-5.555-2.237,8.741,8.741,0,0,0,0,17.466,7.5,7.5,0,0,0,5.555-2.237v1.876h3.247V274.392H50.447Zm-5.267,12.2a5.71,5.71,0,1,1,5.411-5.7A5.431,5.431,0,0,1,45.181,296.983Z"
            transform="translate(-898.841 -42.856)" fill="#2a2a48" />
        <path
            d="M300.543,282.548a7.5,7.5,0,0,0-5.555,2.237V274.392h-3.175v25.189h3.175V297.7a7.5,7.5,0,0,0,5.555,2.237,8.7,8.7,0,0,0,0-17.394Zm-.361,3.031a5.71,5.71,0,1,1-5.411,5.7A5.348,5.348,0,0,1,300.182,285.579Z"
            transform="translate(-1131.621 -42.856)" fill="#2a2a48" />
        <path
            d="M529.8,366.888a8.734,8.734,0,1,0,8.874,8.733A8.616,8.616,0,0,0,529.8,366.888Zm5.555,8.733a5.557,5.557,0,1,1-5.555-5.7A5.461,5.461,0,0,1,535.353,375.621Z"
            transform="translate(-1340.529 -127.196)" fill="#2a2a48" />
        <path
            d="M751.366,370.522l.288-.361h-3.823l-4.69,5.99-4.545-5.918-.072-.072h-3.9l6.421,8.228-6.349,8.228-.217.361h3.752L743,380.771l4.835,6.207H751.8l-6.638-8.589Z"
            transform="translate(-1535.259 -130.18)" fill="#2a2a48" />
        <path
            d="M953.07,366.888c-4.834,0-8.3,3.681-8.3,8.733,0,5.124,3.464,8.733,8.513,8.733a9.484,9.484,0,0,0,6.855-2.526l.144-.144-1.732-2.237-.144.144a7.6,7.6,0,0,1-4.906,1.877,5.155,5.155,0,0,1-5.339-4.691h12.842v-1.227C960.934,370.424,957.688,366.888,953.07,366.888Zm-4.906,7.217c.5-2.743,2.308-4.4,4.906-4.4,2.525,0,4.256,1.66,4.689,4.4Z"
            transform="translate(-1727.007 -127.196)" fill="#2a2a48" />
        <path
            d="M1167.279,375.668l-1.875-.217q-3.03-.325-3.031-1.949c0-1.371,1.371-2.237,3.464-2.237a10.076,10.076,0,0,1,5.195,1.516l.144.144,1.443-2.526-.144-.072a11.97,11.97,0,0,0-6.638-1.8c-4.185,0-6.782,2.021-6.782,5.2,0,1.876,1.011,4.186,5.628,4.764l1.875.216c2.093.289,3.1.938,3.1,2.021,0,1.443-1.515,2.31-4.184,2.31a8.267,8.267,0,0,1-5.484-1.732l-.145-.144-1.515,2.454.145.072a12.118,12.118,0,0,0,7,2.165c4.545,0,7.431-2.093,7.431-5.341C1172.979,377.761,1171.1,376.173,1167.279,375.668Z"
            transform="translate(-1921.737 -128.687)" fill="#2a2a48" />
        <path
            d="M-945.237,237.6l19.119-6.212,6.212,19.119-19.119,6.212-.812-2.5a21.279,21.279,0,0,1-3.338,0l2.112,6.5,25.156-8.174-8.174-25.156-25.156,8.174,3.953,12.166.27.064.037.009a13.22,13.22,0,0,0,3.171.359Z"
            fill="#2a2a48" />
        <path
            d="M-905.215,414.859a18.8,18.8,0,0,0,8.552-5.467l2.116,1.323a19.963,19.963,0,0,1-9.787,6.7,20.021,20.021,0,0,1-11.9.441h0l.882-2.293h0A18.822,18.822,0,0,0-905.215,414.859Z"
            transform="translate(-30.09 -165.951)" fill="#2a2a48" />
    </g>
</svg>