<?xml version="1.0" encoding="UTF-8"?>
<svg width="232px" height="51px" viewBox="0 0 232 51" version="1.1"
    xmlns="http://www.w3.org/2000/svg" xmlns:xlink="http://www.w3.org/1999/xlink">
    <!-- Generator: Sketch 55.2 (78181) - https://sketchapp.com -->
    <title>Logo@1x</title>
    <desc>Created with Sketch.</desc>
    <g id="Logo" stroke="none" stroke-width="1" fill="none" fill-rule="evenodd">
        <g id="LOGO-NEU" transform="translate(-1.000000, 0.000000)" fill="#045462">
            <polygon id="Fill-1"
                points="18.6802894 -0.000325531915 12.5125447 28.9036532 27.9319064 28.9036532 31.2501617 13.3551638 66.9729489 13.3551638 69.8224383 -0.000325531915"></polygon>
            <polygon id="Fill-2"
                points="43.0277979 21.6937723 39.6910957 37.3323255 3.84894681 37.3323255 0.999457447 50.6867298 52.2609681 50.6867298 58.4482447 21.6937723"></polygon>
            <path
                d="M83.0277489,40.3447979 C83.0277489,40.3447979 85.3856851,43.0304362 89.6827064,43.0304362 C93.6216426,43.0304362 96.0381745,40.4934574 96.0381745,37.3607553 C96.0381745,30.4670745 85.5647277,31.8994149 85.5647277,26.9166064 C85.5647277,25.0654149 87.2954723,23.3053723 89.9811106,23.3053723 C92.7264298,23.3053723 94.5765362,25.0957979 94.5765362,25.0957979 L95.5911106,23.3650532 C95.5911106,23.3650532 93.6216426,21.3359043 89.9811106,21.3359043 C86.1018553,21.3359043 83.4455149,23.9618617 83.4455149,26.9762872 C83.4455149,33.4815 93.9200468,32.1381383 93.9200468,37.4204362 C93.9200468,39.6883085 92.0395574,41.0609681 89.7423872,41.0609681 C86.4295574,41.0609681 84.2517489,38.7627128 84.2517489,38.7627128 L83.0277489,40.3447979 Z"
                id="Fill-3"></path>
            <polygon id="Fill-5"
                points="110.123723 42.6724596 112.183255 42.6724596 112.183255 23.5442043 119.703043 23.5442043 119.703043 21.6940979 102.573553 21.6940979 102.573553 23.5442043 110.123723 23.5442043"></polygon>
            <polygon id="Fill-6"
                points="140.893326 42.6724596 143.072219 42.6724596 135.372304 21.6940979 133.164113 21.6940979 125.465283 42.6724596 127.644177 42.6724596 134.238368 23.8719064 134.298049 23.8719064"></polygon>
            <path
                d="M151.639243,32.048834 C151.639243,38.1666638 156.055626,43.0301106 162.262434,43.0301106 C167.42537,43.0301106 170.290051,39.7780468 170.290051,39.7780468 L169.096434,38.3153234 C169.096434,38.3153234 166.530157,41.1203234 162.292817,41.1203234 C157.308923,41.1203234 153.787753,37.0327277 153.787753,32.0195362 C153.787753,27.0649404 157.308923,23.245366 162.233136,23.245366 C166.172072,23.245366 168.618987,25.5729191 168.618987,25.5729191 L169.723626,24.0516 C169.723626,24.0516 167.186647,21.3355787 162.173455,21.3355787 C156.174987,21.3355787 151.639243,25.9613872 151.639243,32.048834"
                id="Fill-7"></path>
            <polygon id="Fill-9"
                points="179.385955 32.6456426 185.384423 42.6720255 187.800955 42.6720255 181.1167 31.660366 181.1167 31.6006851 187.383189 21.6936638 185.026338 21.6936638 179.385955 30.7955362 178.777211 31.7352383"></polygon>
            <polygon id="Fill-10"
                points="198.633681 42.6723511 203.856298 42.6723511 203.856298 21.3359043 198.633681 21.3359043"></polygon>
            <polygon id="Fill-11"
                points="213.517977 21.3353617 213.517977 25.8125106 219.993891 25.8125106 219.993891 42.6718085 225.216509 42.6718085 225.216509 25.8125106 231.691338 25.8125106 231.691338 21.3353617"></polygon>
        </g>
    </g>
</svg>